<svg
    height="500"
    viewBox="0 0 4250 500"
    width="4250"
    xmlns="http://www.w3.org/2000/svg"
>
    <defs>
        <linearGradient gradientTransform="matrix(0.9998 0 0 0.9998 9.651873e-02 -578.99)"
                        gradientUnits="userSpaceOnUse" id="kotlin-logo-gradient" x1="500.0035" x2="-9.653803e-02"
                        y1="579.1058" y2="1079.2058">
            <stop offset="3.435144e-03" stop-color="#E44857"/>
            <stop offset="0.4689" stop-color="#C711E1"/>
            <stop offset="1" stop-color="#7F52FF"/>
        </linearGradient>
    </defs>
    <text
        font-family="'JetBrains Mono',monospace"
        font-size="550px"
        x="600"
        y="457"
    >
        ModelGoblin
    </text>
    <g stroke="black" stroke-width="20">
        <rect fill="none" height="490" rx="16"
              ry="16" stroke="url(#kotlin-logo-gradient)" stroke-width="15" width="490" x="5" y="5"
        />
        <path
            d="M 341.05767,0.2930617 340.80171,500.28538"
            fill="none"
        />
        <path
            d="M 173.62582,0.00377475 173.37418,491.60808"
            fill="none"
        />
        <path
            d="M 0.30788183,173.66335 492.06626,173.91509"
            fill="none"
        />
        <path
            d="M 102.28104,7.7891232 C 48.915529,7.525748 3.3690032,57.786955 7.8040067,110.75145 c 0.1573537,97.4597 -0.3151157,194.93487 0.2369491,292.38489 2.3973572,51.53104 51.5255892,93.8242 102.7253742,89.65301 97.4597,-0.15735 194.93486,0.31512 292.38487,-0.23695 51.53104,-2.39736 93.8242,-51.5256 89.65301,-102.72538 -0.15735,-97.4597 0.31512,-194.93487 -0.23695,-292.384889 C 490.1699,45.911089 441.04166,3.617933 389.84188,7.7891232 c -95.85361,0 -191.70723,0 -287.56084,0 z"
            fill="none"
        />
        <path
            d="M 0.00377502,340.37415 491.76215,340.62589"
            fill="none"
        />
    </g>
    <polygon
        fill="url(#kotlin-logo-gradient)"
        points="500,500 0,500 0,0 500,0 250,250"
        transform="matrix(0.50020008,0,0,0.5005005,141.22272,121.14567) translate(0,20)"
    />
</svg>
